<svg width="96" height="76" viewBox="0 0 96 76" fill="none" xmlns="http://www.w3.org/2000/svg">
<path d="M48 1.25C48.3205 1.25 48.6368 1.31505 48.9297 1.43945V1.43848L90.8027 19.25L90.8057 19.252C91.3003 19.4607 91.7013 19.8284 91.9453 20.2881C92.189 20.7473 92.2634 21.2731 92.1572 21.7773C92.0509 22.2818 91.7691 22.7395 91.3545 23.0703C90.9393 23.4015 90.4164 23.5842 89.875 23.583H80.96V65.0059H86.8066L86.9883 65.0156C87.409 65.0575 87.8013 65.2402 88.0977 65.5312C88.3932 65.8216 88.5723 66.1984 88.6133 66.5957L88.623 66.7676V69.5605C88.6226 69.6161 88.6189 69.6715 88.6123 69.7266L88.4453 71.125H92.9336L93.1152 71.1338C93.536 71.1755 93.9282 71.3585 94.2246 71.6494C94.5203 71.9398 94.7003 72.3173 94.7412 72.7148L94.75 72.8867V74.75H1.25V72.8965C1.25 72.4364 1.43537 71.9899 1.77344 71.6572C2.06983 71.3655 2.46262 71.1826 2.88379 71.1406L3.06641 71.1309H7.54785L7.38867 69.7393C7.38189 69.6799 7.37774 69.6202 7.37695 69.5605V66.7734C7.37806 66.3141 7.56448 65.8689 7.90234 65.5371C8.19872 65.2461 8.59104 65.0633 9.01172 65.0215L9.19336 65.0127H15.04V23.5898H6.125C5.58364 23.5911 5.06069 23.4083 4.64551 23.0771C4.23086 22.7464 3.94916 22.2887 3.84277 21.7842C3.73651 21.2799 3.811 20.7542 4.05469 20.2949C4.29871 19.8351 4.69953 19.4666 5.19434 19.2578L5.19824 19.2568L47.0703 1.43848V1.43945C47.3632 1.31505 47.6795 1.25 48 1.25ZM19.6865 65.0186H35.46V30.5566H19.6865V65.0186ZM54.6367 30.5635L41.3623 30.5693L40.1133 30.5703V65.0127H55.8867V30.5625L54.6367 30.5635ZM60.5332 65.0127H76.3135V30.5635H60.5332V65.0127ZM47.5107 6.18164L22.8779 16.6709L23.3682 19.0713H72.6387L73.1279 16.6709L48.4893 6.18164L48 5.97363L47.5107 6.18164Z" fill="#66CBFF" stroke="white" stroke-width="2.5"/>
</svg>
