<svg width="76" height="62" viewBox="0 0 76 62" fill="none" xmlns="http://www.w3.org/2000/svg">
<path d="M8.58333 59.9167C6.56667 59.9167 4.825 59.2139 3.35833 57.8083C1.95278 56.3417 1.25 54.6 1.25 52.5833V8.58333C1.25 6.56667 1.95278 4.85556 3.35833 3.45C4.825 1.98333 6.56667 1.25 8.58333 1.25H67.25C69.2667 1.25 70.9778 1.98333 72.3833 3.45C73.85 4.85556 74.5833 6.56667 74.5833 8.58333V52.5833C74.5833 54.6 73.85 56.3417 72.3833 57.8083C70.9778 59.2139 69.2667 59.9167 67.25 59.9167H8.58333ZM37.9167 34.25L67.25 15.9167V8.58333L37.9167 26.9167L8.58333 8.58333V15.9167L37.9167 34.25Z" fill="#66CBFF" stroke="white" stroke-width="2.5"/>
</svg>
