<svg width="71" height="86" viewBox="0 0 71 86" fill="none" xmlns="http://www.w3.org/2000/svg">
<path d="M68.75 35.375C68.75 61.3333 35.375 83.5833 35.375 83.5833C35.375 83.5833 2 61.3333 2 35.375C2 26.5234 5.51628 18.0343 11.7753 11.7753C18.0343 5.51628 26.5234 2 35.375 2C44.2266 2 52.7157 5.51628 58.9747 11.7753C65.2337 18.0343 68.75 26.5234 68.75 35.375Z" fill="#66CBFF"/>
<path d="M35.375 46.5C41.5192 46.5 46.5 41.5192 46.5 35.375C46.5 29.2308 41.5192 24.25 35.375 24.25C29.2308 24.25 24.25 29.2308 24.25 35.375C24.25 41.5192 29.2308 46.5 35.375 46.5Z" fill="#66CBFF"/>
<path d="M68.75 35.375C68.75 61.3333 35.375 83.5833 35.375 83.5833C35.375 83.5833 2 61.3333 2 35.375C2 26.5234 5.51628 18.0343 11.7753 11.7753C18.0343 5.51628 26.5234 2 35.375 2C44.2266 2 52.7157 5.51628 58.9747 11.7753C65.2337 18.0343 68.75 26.5234 68.75 35.375Z" stroke="#F8F8F8" stroke-width="4" stroke-linecap="round" stroke-linejoin="round"/>
<path d="M35.375 46.5C41.5192 46.5 46.5 41.5192 46.5 35.375C46.5 29.2308 41.5192 24.25 35.375 24.25C29.2308 24.25 24.25 29.2308 24.25 35.375C24.25 41.5192 29.2308 46.5 35.375 46.5Z" stroke="#F8F8F8" stroke-width="4" stroke-linecap="round" stroke-linejoin="round"/>
</svg>
