<svg width="41" height="48" viewBox="0 0 41 48" fill="none" xmlns="http://www.w3.org/2000/svg">
<path fill-rule="evenodd" clip-rule="evenodd" d="M6.08646 5.92969C9.91717 2.14187 15.0756 0.0128801 20.4535 5.82496e-05C25.8314 -0.0127636 30.9998 2.09161 34.8484 5.86112H34.853L34.9259 5.92969C43.0007 13.9002 43.0166 26.7027 35.0215 34.5932L22.104 47.3432C21.6779 47.7641 21.104 48 20.5062 48C19.9083 48 19.3344 47.7641 18.9083 47.3432L5.99079 34.5932C4.09434 32.7326 2.58749 30.5106 1.55872 28.0575C0.529947 25.6044 0 22.9698 0 20.3083C0 17.6468 0.529947 15.0122 1.55872 12.5591C2.58749 10.1061 4.09434 7.88398 5.99079 6.02341L6.08646 5.92969ZM20.5005 11.427C19.6031 11.427 18.7145 11.6043 17.8854 11.9489C17.0563 12.2936 16.303 12.7987 15.6685 13.4354C15.0339 14.0722 14.5306 14.8281 14.1872 15.6601C13.8438 16.4921 13.667 17.3838 13.667 18.2843C13.667 19.1848 13.8438 20.0765 14.1872 20.9084C14.5306 21.7404 15.0339 22.4964 15.6685 23.1331C16.303 23.7699 17.0563 24.275 17.8854 24.6196C18.7145 24.9642 19.6031 25.1416 20.5005 25.1416C22.3128 25.1416 24.0509 24.4191 25.3324 23.1331C26.614 21.8471 27.3339 20.1029 27.3339 18.2843C27.3339 16.4656 26.614 14.7214 25.3324 13.4354C24.0509 12.1494 22.3128 11.427 20.5005 11.427Z" fill="#454545"/>
</svg>
