<svg width="74" height="74" viewBox="0 0 74 74" fill="none" xmlns="http://www.w3.org/2000/svg">
<path d="M45.4552 14.9167C48.7924 15.5678 51.8594 17.1999 54.2636 19.6041C56.6679 22.0083 58.3 25.0753 58.9511 28.4125M45.4552 1.25C52.3886 2.02024 58.854 5.1251 63.7899 10.0548C68.7258 14.9845 71.8388 21.4459 72.6177 28.3783M69.2011 55.6433V65.8933C69.2049 66.8449 69.01 67.7867 68.6288 68.6586C68.2476 69.5305 67.6885 70.3131 66.9873 70.9564C66.2862 71.5997 65.4584 72.0894 64.557 72.3942C63.6556 72.6991 62.7004 72.8123 61.7527 72.7267C51.2391 71.5843 41.14 67.9917 32.2669 62.2375C24.0116 56.9918 17.0126 49.9928 11.7669 41.7375C5.99266 32.8241 2.39923 22.6759 1.27773 12.115C1.19235 11.1702 1.30464 10.2179 1.60744 9.31888C1.91025 8.41984 2.39693 7.59369 3.03652 6.89304C3.6761 6.19239 4.45457 5.63259 5.32235 5.24928C6.19014 4.86598 7.12823 4.66756 8.0769 4.66667H18.3269C19.985 4.65035 21.5925 5.23752 22.8498 6.31874C24.107 7.39995 24.9282 8.90144 25.1602 10.5433C25.5929 13.8236 26.3952 17.0443 27.5519 20.1442C28.0116 21.3671 28.1111 22.6961 27.8386 23.9738C27.5661 25.2516 26.933 26.4244 26.0144 27.3533L21.6752 31.6925C26.539 40.2463 33.6215 47.3287 42.1752 52.1925L46.5144 47.8533C47.4434 46.9347 48.6162 46.3017 49.8939 46.0292C51.1716 45.7567 52.5007 45.8561 53.7236 46.3158C56.8234 47.4725 60.0442 48.2749 63.3244 48.7075C64.9841 48.9416 66.4999 49.7776 67.5834 51.0564C68.6669 52.3353 69.2426 53.9677 69.2011 55.6433Z" fill="#66CBFF"/>
<path d="M45.4552 14.9167C48.7924 15.5678 51.8594 17.1999 54.2636 19.6041C56.6679 22.0083 58.3 25.0753 58.9511 28.4125M45.4552 1.25C52.3886 2.02024 58.854 5.1251 63.7899 10.0548C68.7258 14.9845 71.8388 21.4459 72.6177 28.3783M69.2011 55.6433V65.8933C69.2049 66.8449 69.01 67.7867 68.6288 68.6586C68.2476 69.5305 67.6885 70.3131 66.9873 70.9564C66.2862 71.5997 65.4584 72.0894 64.557 72.3942C63.6556 72.6991 62.7004 72.8123 61.7527 72.7267C51.2391 71.5843 41.14 67.9917 32.2669 62.2375C24.0116 56.9918 17.0126 49.9928 11.7669 41.7375C5.99266 32.8241 2.39923 22.6759 1.27773 12.115C1.19235 11.1702 1.30464 10.2179 1.60744 9.31888C1.91025 8.41984 2.39693 7.59369 3.03652 6.89304C3.6761 6.19239 4.45457 5.63259 5.32235 5.24928C6.19014 4.86598 7.12823 4.66756 8.0769 4.66667H18.3269C19.985 4.65035 21.5925 5.23752 22.8498 6.31874C24.107 7.39995 24.9282 8.90144 25.1602 10.5433C25.5929 13.8236 26.3952 17.0443 27.5519 20.1442C28.0116 21.3671 28.1111 22.6961 27.8386 23.9738C27.5661 25.2516 26.933 26.4244 26.0144 27.3533L21.6752 31.6925C26.539 40.2463 33.6215 47.3287 42.1752 52.1925L46.5144 47.8533C47.4434 46.9347 48.6162 46.3017 49.8939 46.0292C51.1716 45.7567 52.5007 45.8561 53.7236 46.3158C56.8234 47.4725 60.0442 48.2749 63.3244 48.7075C64.9841 48.9416 66.4999 49.7776 67.5834 51.0564C68.6669 52.3353 69.2426 53.9677 69.2011 55.6433Z" stroke="white" stroke-width="2.5" stroke-linecap="round" stroke-linejoin="round"/>
</svg>
